# xmcd CD database file
#
# Track frame offsets:
#	150
#	18340
#	38290
#	53530
#	69578
#	86354
#	97154
#	115223
#	128073
#	142521
#	157898
#	174473
#
# Disc length: 2629 seconds
#
# Revision: 0
# Processed by: cddbd v1.5.2PL0 Copyright (c) Steve Scherf et al.
# Submitted via: CDex 1.70beta2
#
DISCID=850a430c
DTITLE=Duo Grande - Pick a dale a Day
DYEAR=2009
DGENRE=Country
TTITLE0=Duo Grande - Pick a Bale o'Cotton
TTITLE1=Duo Grande - Copperhead Road
TTITLE2=Duo Grande - Closer
TTITLE3=Duo Grande - Lovin' all Night
TTITLE4=Duo Grande - Suds in the Bucket
TTITLE5=Duo Grande - Poisn Love
TTITLE6=Duo Grande - Big Time
TTITLE7=Duo Grande - Down in Mississippi
TTITLE8=Duo Grande - Gonna get a Life
TTITLE9=Duo Grande - Jeans on
TTITLE10=Duo Grande - Rose-a-Lee.mp3
TTITLE11=Duo Grande - Good Time
EXTD=YEAR: 2009
EXTT0=
EXTT1=
EXTT2=
EXTT3=
EXTT4=
EXTT5=
EXTT6=
EXTT7=
EXTT8=
EXTT9=
EXTT10=
EXTT11=
PLAYORDER=
